<?xml version="1.0" encoding="utf-8"?><!-- Uploaded to: SVG Repo, www.svgrepo.com, Generator: SVG Repo Mixer Tools -->
<svg fill="#000000" width="800px" height="800px" viewBox="0 0 24 24" id="portfolio" data-name="Flat Line" xmlns="http://www.w3.org/2000/svg" class="icon flat-line"><path id="secondary" d="M19.5,12.5A5.12,5.12,0,0,1,15.88,14H13v1H11V14H8.12A5.12,5.12,0,0,1,4.5,12.5a4.76,4.76,0,0,1-.5-.61V20a1,1,0,0,0,1,1H19a1,1,0,0,0,1-1V11.89A4.76,4.76,0,0,1,19.5,12.5Z" style="fill: rgb(44, 169, 188); stroke-width: 2;"></path><path id="primary" d="M20,12v8a1,1,0,0,1-1,1H5a1,1,0,0,1-1-1V12" style="fill: none; stroke: rgb(0, 0, 0); stroke-linecap: round; stroke-linejoin: round; stroke-width: 2;"></path><path id="primary-2" data-name="primary" d="M13,14h2.88A5.12,5.12,0,0,0,21,8.88V8a1,1,0,0,0-1-1H4A1,1,0,0,0,3,8v.88A5.12,5.12,0,0,0,8.12,14H11" style="fill: none; stroke: rgb(0, 0, 0); stroke-linecap: round; stroke-linejoin: round; stroke-width: 2;"></path><path id="primary-3" data-name="primary" d="M16,7H8V4A1,1,0,0,1,9,3h6a1,1,0,0,1,1,1Zm-3,6H11v2h2Z" style="fill: none; stroke: rgb(0, 0, 0); stroke-linecap: round; stroke-linejoin: round; stroke-width: 2;"></path></svg>